<svg xmlns="http://www.w3.org/2000/svg" viewBox="0 0 800 800" style="enable-background:new 0 0 800 800" xml:space="preserve"><path d="M483.333 65.5c-75.29 4.709-143.962 54.653-171.307 124.591-14.25 36.448-17.954 72.69-11.301 110.576L303.066 314 229.99 435.333c-40.192 66.734-75.315 126.134-78.053 132-12.303 26.369-13.462 54.05-3.388 80.902 5.894 15.712 11.728 25.048 22.784 36.465 41.778 43.138 110.333 43.617 151.506 1.058 4.128-4.267 48.48-55.758 98.56-114.425l91.055-106.666 13.769-2.207c46.248-7.41 85.176-27.71 116.394-60.696 26.029-27.503 44.045-62.411 51.648-100.071 3.317-16.432 3.317-57.621 0-74.053-5.293-26.216-16.97-54.099-31.801-75.932-9.204-13.549-33.224-38.646-45.62-47.665C577.187 75.19 532.887 62.402 483.333 65.5m48 70.353c21.249 5.659 41.427 17.142 58.083 33.055 18.026 17.223 30.343 38.259 36.933 63.077 4.671 17.594 4.934 45.655.59 63.091-5.654 22.696-15.077 40.653-31.429 59.892-25.595 30.114-66.105 46.678-103.859 42.468-55.981-6.242-105.993-46.038-122.806-97.719-11.744-36.1-5.4-74.674 17.982-109.344 7.312-10.841 22.369-26.466 32.506-33.731 15.135-10.847 36.872-20.084 54.88-23.322 11.774-2.118 45.229-.634 57.12 2.533M351.882 401.718c18.558 20.04 48.171 39.944 73.133 49.154 4.208 1.553 7.851 2.991 8.096 3.197.799.675-150.411 177.07-158.375 184.753-5.041 4.864-10.003 8.253-14.153 9.667-18.802 6.406-39.253-1.995-47.904-19.679-2.703-5.524-3.478-9.13-3.501-16.29-.016-5.058.637-10.994 1.45-13.191.814-2.198 29.788-51.221 64.388-108.941l62.908-104.945 4.023 4.945c2.213 2.72 6.683 7.819 9.935 11.33" fill-rule="evenodd"/></svg>