<svg width="800" height="800" viewBox="0 0 24 24" fill="none" xmlns="http://www.w3.org/2000/svg"><path d="M120.552 76.116c-19.409 2.266-36.573 10.899-51.729 26.018-11.102 11.075-18.137 22.359-23.19 37.199L42 150v500l3.633 10.667c5.046 14.818 12.079 26.111 23.167 37.199 11.088 11.088 22.382 18.122 37.2 23.168l10.667 3.633h566.666L694 721.034c14.818-5.046 26.112-12.08 37.2-23.168 11.113-11.113 18.148-22.424 23.136-37.199L757.937 650l.032-46c.035-52.282-.081-52.949-10.214-58.644-7.708-4.333-21.135-4.333-28.843 0-9.917 5.573-10.155 6.796-10.912 55.977-.646 41.997-.762 43.528-3.772 49.639-4.4 8.934-13.873 17.787-22.475 21.006-7.101 2.657-9.84 2.689-231.803 2.689H225.333V125.311l226.334.344L678 126l6.26 3.083c7.99 3.936 16.055 12.001 19.99 19.991 2.982 6.053 3.105 7.689 3.75 49.593.623 40.479.848 43.679 3.419 48.58 3.839 7.317 10.835 10.749 21.914 10.749 11.08 0 18.076-3.432 21.914-10.749 2.629-5.011 2.752-7.318 2.722-51.247l-.032-46-3.601-10.667c-4.995-14.796-12.032-26.099-23.159-37.199-15.738-15.7-32.035-23.648-53.541-26.112-14.225-1.63-543.082-1.541-557.084.094M174.667 250v124.667H92V266.834c0-117.981-.296-113.306 7.881-124.426 2.143-2.913 6.294-7.06 9.224-9.215 9.39-6.906 13.348-7.663 40.562-7.766l25-.094V250M540 301.516c-59.962 6.145-117.287 34.753-154.222 76.965-11.166 12.76-13.665 18.855-11.16 27.216 2.979 9.942 16.583 20.97 25.869 20.97 6.291 0 11.731-3.892 26.846-19.203 37.496-37.984 83.65-56.797 139.334-56.797 55.609 0 101.887 18.864 139.333 56.797 15.115 15.311 20.555 19.203 26.846 19.203 9.287 0 22.89-11.028 25.869-20.97 2.505-8.361.006-14.456-11.159-27.216C699.03 323.024 619.152 293.404 540 301.516m1.333 92.453c-21.912 3.715-45.648 13.921-64.326 27.659-18.441 13.563-36.953 36.623-36.994 46.081-.054 12.568 18.665 27.388 31.596 25.015 4.166-.765 7.526-3.475 19.058-15.371 15.009-15.483 21.876-20.682 35.443-26.833 12.689-5.754 24.609-8.149 40.557-8.149 15.947 0 27.867 2.395 40.556 8.149 13.567 6.151 20.434 11.35 35.444 26.833 11.531 11.896 14.891 14.606 19.057 15.371 12.931 2.373 31.65-12.447 31.596-25.015-.04-9.458-18.552-32.518-36.994-46.081-19.196-14.119-42.65-24.043-65.646-27.776-13.763-2.234-35.788-2.182-49.347.117M174.667 550v124.667H150.05c-21.419 0-25.55-.35-31.803-2.689-8.602-3.219-18.075-12.072-22.475-21.006l-3.105-6.305L92.311 535l-.356-109.667h82.712V550m382-56.874c-10.388 6.359-17.716 18.862-16.102 27.47 2.064 10.997 15.862 22.515 26.975 22.515 11.182 0 24.31-13.108 25.415-25.377.485-5.381-.046-7.37-3.334-12.484-5.468-8.504-14.998-14.585-22.85-14.578-3.575.003-7.762 1.019-10.104 2.454" fill-rule="evenodd" fill="#000"/></svg>