<svg width="800" height="800" viewBox="0 0 24 24" xmlns="http://www.w3.org/2000/svg"><path d="M368.975 34.645c-74.925 7.283-140.052 33.395-198.944 79.763-15.367 12.099-49.845 47.704-62.335 64.37-38.532 51.42-61.717 107.571-71.247 172.555-3.284 22.4-3.284 74.934 0 97.334 9.528 64.965 32.671 121.03 71.232 172.555 15.153 20.247 50.85 55.944 71.097 71.097 51.525 38.561 107.59 61.704 172.555 71.232 22.4 3.284 74.934 3.284 97.334 0 64.965-9.528 121.03-32.671 172.555-71.232 20.247-15.153 55.944-50.85 71.097-71.097 38.565-51.531 61.743-107.685 71.223-172.555 2.94-20.115 3.314-73.65.648-92.667-9.874-70.42-33.556-127.154-76.251-182.667-13.525-17.585-46.923-50.429-65.272-64.189-65.379-49.026-135.594-73.516-215.334-75.104-14.666-.292-31.928-.02-38.358.605M444 103.372c31.643 4.777 58.19 13.087 87.461 27.378 89.454 43.676 150.13 126.788 165.414 226.583 3.247 21.204 3.238 64.25-.018 85.286-12.541 81.018-54.185 150.386-119.372 198.84-59.792 44.445-137.247 65.199-211.086 56.562-102.561-11.997-191.081-74.586-235.748-166.688-21.325-43.969-29.874-81.555-29.874-131.333 0-49.778 8.549-87.364 29.874-131.333 29.162-60.131 77.585-108.575 138.016-138.076 34.356-16.772 65.531-25.265 109.333-29.787 10.731-1.108 52.383.513 66 2.568M333.333 400v133.335l99.334-66.22C487.3 430.693 532 400.492 532 400c0-.492-44.7-30.693-99.333-67.115l-99.334-66.22V400" fill-rule="evenodd"/></svg>