<svg height="800" width="800" xmlns="http://www.w3.org/2000/svg" viewBox="0 0 512 512" xml:space="preserve"><path d="M637.481 63.414c-2.367 1.992-4.361 5.185-4.787 7.666-.401 2.34.408 16.553 1.798 31.587 1.391 15.033 2.316 27.698 2.056 28.145-.26.447-4.54 1.217-9.511 1.713-4.97.495-17.864 2.697-28.653 4.892-80.102 16.303-149.262 58.164-209.887 127.041-21.778 24.742-45.002 56.069-78.739 106.209-29.552 43.921-45.482 66.077-60.44 84.064-52.877 63.585-103.968 95.643-171.985 107.916-13.823 2.494-49.755 5.239-69.666 5.321L0 568v104.271l25.667-.879c14.116-.484 31.666-1.464 39-2.179 86.636-8.45 160.038-42.618 224.333-104.427 34.626-33.288 59.7-65.206 108.719-138.394 38.61-57.648 60.585-86.002 87.106-112.395 40.407-40.211 83.926-64.382 134.44-74.667 8.763-1.784 16.119-3.057 16.347-2.829.228.228-.531 10.789-1.686 23.47-2.265 24.869-1.802 28.746 3.876 32.42 5.126 3.317 9.5 3.68 14.309 1.186 8.455-4.385 141.862-104.254 144.889-108.465 3.331-4.633 3.763-9.569 1.235-14.12C796.783 168.377 664.72 68.997 654 62.452c-5.673-3.464-11.675-3.114-16.519.962M0 181.154v51.821l31 .774c32.978.823 47.201 2.704 72.431 9.577 32.635 8.891 65.521 26.115 93.902 49.182 20.174 16.397 52.575 51.254 69.243 74.492 2.498 3.483 4.891 6.319 5.317 6.303.425-.017 8.574-11.816 18.107-26.219 9.533-14.404 23.183-34.232 30.333-44.062 7.15-9.831 13-18.215 13-18.633 0-4.41-52.208-58.24-70.666-72.861-71.409-56.564-146.082-82.172-239.667-82.19l-23-.005v51.821m425.626 256.742c-6.741 10.748-41.119 60.672-49.839 72.378l-4.177 5.606 9.862 11.624c43.074 50.768 92.822 89.542 143.485 111.831 29.934 13.169 75.523 25.734 102.521 28.255 4.734.442 8.818 1.165 9.075 1.607.257.442-.67 13.103-2.061 28.136-1.39 15.034-2.199 29.247-1.798 31.587 1.013 5.902 7.462 11.08 13.799 11.08 4.438 0 12.472-5.577 76.898-53.377 39.568-29.357 72.989-55.007 74.269-57 2.725-4.244 2.954-8.151.76-12.966-.997-2.187-28.376-23.393-74.104-57.396-66.854-49.711-72.936-53.928-77.8-53.928-2.902 0-6.695.93-8.428 2.065-5.991 3.926-6.449 7.52-4.162 32.631 1.155 12.681 1.868 23.288 1.584 23.572-.907.907-26.397-4.72-39.51-8.722-56.424-17.217-102.898-52.249-150.272-113.27-6.095-7.852-11.528-14.425-12.072-14.607-.544-.182-4.158 4.721-8.03 10.894" fill-rule="evenodd"/></svg>