<?xml version="1.0" encoding="utf-8"?>
<!-- Generator: Adobe Illustrator 24.1.2, SVG Export Plug-In . SVG Version: 6.00 Build 0)  -->
<svg version="1.1" id="Слой_1" xmlns="http://www.w3.org/2000/svg" xmlns:xlink="http://www.w3.org/1999/xlink" x="0px" y="0px"
	 viewBox="0 0 800 800" style="enable-background:new 0 0 800 800;" xml:space="preserve">
<style type="text/css">
	.st0{fill:#B2B2B2;}
	.st1{fill-rule:evenodd;clip-rule:evenodd;}
</style>
<g id="style_x3D_bulk">
	<g id="add">
		<path id="rectangle" class="st0" d="M41.7,241.7c0-110.5,89.5-200,200-200h316.7c110.5,0,200,89.5,200,200v316.7
			c0,110.5-89.5,200-200,200H241.7c-110.5,0-200-89.5-200-200V241.7z"/>
		<path id="vector__x28_Stroke_x29_" class="st1" d="M400.8,210.8c11.1,0,20.1,9,20.1,20.1v330.1c0,11.1-9,20.1-20.1,20.1
			s-20.1-9-20.1-20.1V230.9C380.7,219.8,389.7,210.8,400.8,210.8z"/>
		<path id="vector__x28_Stroke_x29__x5F_2" class="st1" d="M595,400.1c0,11.7-9.5,21.2-21.2,21.2H226c-11.7,0-21.2-9.5-21.2-21.2
			c0-11.7,9.5-21.2,21.2-21.2l347.8,0C585.5,379,595,388.4,595,400.1z"/>
	</g>
</g>
</svg>
