<?xml version="1.0" encoding="utf-8"?>
<!-- Generator: Adobe Illustrator 24.1.2, SVG Export Plug-In . SVG Version: 6.00 Build 0)  -->
<svg version="1.1" id="Слой_1" xmlns="http://www.w3.org/2000/svg" xmlns:xlink="http://www.w3.org/1999/xlink" x="0px" y="0px"
	 viewBox="0 0 800 800" style="enable-background:new 0 0 800 800;" xml:space="preserve">
<style type="text/css">
	.st0{fill:none;stroke:#B2B2B2;stroke-width:37.5;stroke-miterlimit:50;}
</style>
<path class="st0" d="M645.1,315.1L415,142.5c-8.9-6.7-21.1-6.7-30,0L154.9,315.1c-6.3,4.7-10,12.1-10,20v333c0,13.8,11.2,25,25,25
	h142.6c13.8,0,25-11.2,25-25V562.5c0-13.8,11.2-25,25-25H450c13.8,0,25,11.2,25,25v105.6c0,13.8,11.2,25,25,25h130.1
	c13.8,0,25-11.2,25-25v-333C655.1,327.3,651.4,319.8,645.1,315.1z"/>
</svg>
