<?xml version="1.0" encoding="utf-8"?>
<!-- Generator: Adobe Illustrator 24.1.2, SVG Export Plug-In . SVG Version: 6.00 Build 0)  -->
<svg version="1.1"
	 id="svg822" xmlns:cc="http://creativecommons.org/ns#" xmlns:dc="http://purl.org/dc/elements/1.1/" xmlns:inkscape="http://www.inkscape.org/namespaces/inkscape" xmlns:rdf="http://www.w3.org/1999/02/22-rdf-syntax-ns#" xmlns:sodipodi="http://sodipodi.sourceforge.net/DTD/sodipodi-0.dtd" xmlns:svg="http://www.w3.org/2000/svg"
	 xmlns="http://www.w3.org/2000/svg" xmlns:xlink="http://www.w3.org/1999/xlink" x="0px" y="0px" viewBox="0 0 30 30"
	 style="enable-background:new 0 0 30 30;" xml:space="preserve">
<style type="text/css">
	.st0{fill:#B2B2B2;}
</style>
<sodipodi:namedview  bordercolor="#666666" borderopacity="1.0" id="base" inkscape:current-layer="layer1" inkscape:cx="15" inkscape:cy="15" inkscape:document-units="px" inkscape:pageopacity="0.0" inkscape:pageshadow="2" inkscape:window-height="713" inkscape:window-maximized="1" inkscape:window-width="1366" inkscape:window-x="0" inkscape:window-y="0" inkscape:zoom="17.833333" pagecolor="#ffffff" showgrid="true" showguides="false" units="px">
	<inkscape:grid  id="grid816" type="xygrid"></inkscape:grid>
</sodipodi:namedview>
<g id="layer1" transform="translate(0,-289.0625)" inkscape:groupmode="layer" inkscape:label="Layer 1">
	<path id="rect992" class="st0" d="M5,292.1L5,292.1c1.1,0,2,0.9,2,2v20c0,1.1-0.9,2-2,2l0,0c-1.1,0-2-0.9-2-2v-20
		C3,293,3.9,292.1,5,292.1z"/>
	<path id="rect994" class="st0" d="M11,292.1L11,292.1c1.1,0,2,0.9,2,2v20c0,1.1-0.9,2-2,2l0,0c-1.1,0-2-0.9-2-2v-20
		C9,293,9.9,292.1,11,292.1z"/>
	<path id="rect996" class="st0" d="M16.9,292.8L16.9,292.8c1-0.4,2.2,0.2,2.6,1.2l6.8,18.8c0.4,1-0.2,2.2-1.2,2.6l0,0
		c-1,0.4-2.2-0.2-2.6-1.2l-6.8-18.8C15.3,294.3,15.9,293.2,16.9,292.8z"/>
</g>
</svg>
