<svg xmlns="http://www.w3.org/2000/svg" viewBox="0 0 800 800" style="enable-background:new 0 0 800 800" xml:space="preserve"><path d="M109.693 1.977c-2.369 1.03-5.517 3.856-6.995 6.281-2.679 4.394-2.688 5.734-2.688 391.742 0 381.182.041 387.401 2.59 391.582 3.058 5.015 5.856 6.7 13.032 7.847 3.588.574 6.548.193 9.167-1.178 2.127-1.114 98.968-77.073 215.201-168.797l211.333-166.77.667 161.658c.624 151.298.818 161.934 3.023 165.969 4.618 8.451 3.804 8.356 71.644 8.356 68.005 0 67.079.11 71.153-8.476 2.002-4.219 2.18-36.058 2.18-390.102 0-330.16-.272-386.159-1.895-390.043-3.667-8.777-3.142-8.713-71.438-8.713-67.84 0-67.026-.095-71.644 8.356-2.205 4.035-2.399 14.67-3.023 165.964l-.667 161.652-210.666-166.193C224.8 79.705 128.2 3.814 126 2.464c-4.731-2.903-10.363-3.071-16.307-.487" fill-rule="evenodd"/></svg>