<svg xmlns="http://www.w3.org/2000/svg" viewBox="0 0 800 800" style="enable-background:new 0 0 800 800" xml:space="preserve"><path d="M675.333 1.936c-2.2 1.008-99.1 76.897-215.333 168.643l-211.333 166.81L248 175.695c-.624-151.334-.818-161.971-3.023-166.006-4.618-8.451-3.804-8.356-71.644-8.356-67.431 0-67.182-.027-71.31 7.957C100.228 12.759 100 56.804 100 399.399c0 354.682.178 386.573 2.18 390.792 4.074 8.586 3.148 8.476 71.153 8.476 67.84 0 67.026.095 71.644-8.356 2.205-4.035 2.399-14.669 3.023-165.93l.667-161.618L460 629.499c116.233 91.704 213.074 167.645 215.201 168.756 2.615 1.367 5.584 1.747 9.167 1.174 7.176-1.147 9.974-2.832 13.032-7.847 2.549-4.181 2.59-10.4 2.59-391.582 0-386.148-.008-387.347-2.691-391.747-4.439-7.28-13.913-10.005-21.966-6.317" fill-rule="evenodd"/></svg>