<?xml version="1.0" encoding="utf-8"?>
<!-- Generator: Adobe Illustrator 24.1.2, SVG Export Plug-In . SVG Version: 6.00 Build 0)  -->
<svg version="1.1" id="Слой_1" xmlns="http://www.w3.org/2000/svg" xmlns:xlink="http://www.w3.org/1999/xlink" x="0px" y="0px"
	 viewBox="0 0 800 800" style="enable-background:new 0 0 800 800;" xml:space="preserve">
<style type="text/css">
	.st0{fill:none;}
	.st1{fill:#B2B2B2;}
</style>
<g>
	<path class="st0" d="M0,0h800v800H0V0z"/>
	<path class="st1" d="M66.7,600H400v66.7H66.7V600z M66.7,366.7h466.7v66.7H66.7V366.7z M66.7,133.3h666.7V200H66.7V133.3z
		 M633.3,505.7V300H800v66.7H700V600c0,55.2-44.8,100-100.1,99.9c-55.2,0-100-44.8-99.9-100.1c0-55.2,44.8-100,100.1-99.9
		C611.4,500,622.6,501.9,633.3,505.7z M600,633.3c18.4,0,33.3-14.9,33.3-33.3c0-18.4-14.9-33.3-33.3-33.3
		c-18.4,0-33.3,14.9-33.3,33.3C566.7,618.4,581.6,633.3,600,633.3z"/>
</g>
</svg>
