<?xml version="1.0" encoding="utf-8"?>
<!-- Generator: Adobe Illustrator 24.1.2, SVG Export Plug-In . SVG Version: 6.00 Build 0)  -->
<svg version="1.1" id="Capa_1" xmlns="http://www.w3.org/2000/svg" xmlns:xlink="http://www.w3.org/1999/xlink" x="0px" y="0px"
	 viewBox="0 0 800 800" style="enable-background:new 0 0 800 800;" xml:space="preserve">
<style type="text/css">
	.st0{fill:#B2B2B2;}
</style>
<g>
	<path class="st0" d="M75,100h250c27.6,0,50-22.4,50-50c0-27.6-22.4-50-50-50H75C47.4,0,25,22.4,25,50C25,77.6,47.4,100,75,100z"/>
	<path class="st0" d="M75,250h250c27.6,0,50-22.4,50-50c0-27.6-22.4-50-50-50H75c-27.6,0-50,22.4-50,50C25,227.6,47.4,250,75,250z"
		/>
	<path class="st0" d="M375,350c0-27.6-22.4-50-50-50H75c-27.6,0-50,22.4-50,50c0,27.6,22.4,50,50,50h250
		C352.6,400,375,377.6,375,350z"/>
	<path class="st0" d="M642.7,118.6C614.1,96.6,575,66.4,575,50c0-27.6-22.4-50-50-50s-50,22.4-50,50v458.7
		c-15.7-5.5-32.4-8.7-50-8.7c-82.8,0-150,67.2-150,150s67.2,150,150,150s150-67.2,150-150V192.6c2.2,1.7,4.4,3.4,6.6,5.1
		C638,241.3,675,272.9,675,313.9c0,63.7-33.9,99.2-34.9,100.3c-19.8,19.3-20.3,50.9-1,70.7C648.9,494.9,662,500,675,500
		c12.6,0,25.1-4.7,34.8-14.1c6.7-6.5,65.1-66.4,65.1-172C775,220.7,701.6,164.1,642.7,118.6z"/>
</g>
</svg>
