<svg width="800" height="800" viewBox="0 0 24 24" xmlns="http://www.w3.org/2000/svg"><path d="M543.026 53.977c-2.369 1.03-5.516 3.856-6.995 6.281-2.51 4.118-2.688 6.67-2.693 38.705l-.005 34.295-177 .411-177 .41-11.275 3.006c-13.142 3.504-32.339 12.29-43.682 19.993-25.535 17.34-44.08 43.479-53.352 75.197l-3.623 12.392L66.994 389l-.407 144.333h66.746V397.578c0-91.745.469-138.32 1.445-143.666 4.677-25.606 26.861-47.79 52.467-52.467 5.498-1.004 83.597-1.447 256-1.45 243.705-.005 248.164-.051 252.357-2.608 7.462-4.55 10.244-13.199 6.731-20.929-1.998-4.397-142.949-122.268-147.742-123.55-4.64-1.241-6.685-1.052-11.565 1.069M333 283.41l-33 16.601v33.322h66.667v200h66.666V266.667l-33.666.071-33.667.072-33 16.6m333.667 119.012c0 91.745-.469 138.32-1.445 143.666-4.601 25.187-26.211 47.14-51.621 52.439-5.012 1.045-79.342 1.473-255.733 1.473-266.434 0-252.184-.351-258.261 6.365-3.29 3.635-4.321 11.359-2.2 16.479 2.571 6.206 143.321 123.338 149.63 124.522 6.217 1.166 13.598-2.155 16.929-7.619 2.514-4.125 2.691-6.662 2.696-38.747l.005-34.333h172.79c169.441 0 173.053-.054 186.334-2.758 50.566-10.297 89.467-46.781 103.264-96.847l3.6-13.062.374-143.667.373-143.666h-66.735v135.755" fill-rule="evenodd"/></svg>