<?xml version="1.0" encoding="utf-8"?>
<!-- Generator: Adobe Illustrator 24.1.2, SVG Export Plug-In . SVG Version: 6.00 Build 0)  -->
<svg version="1.1" id="Слой_1" xmlns="http://www.w3.org/2000/svg" xmlns:xlink="http://www.w3.org/1999/xlink" x="0px" y="0px"
	 viewBox="0 0 800 800" style="enable-background:new 0 0 800 800;" xml:space="preserve">
<style type="text/css">
	.st0{fill-rule:evenodd;clip-rule:evenodd;fill:#B2B2B2;stroke:#FFFFFF;stroke-miterlimit:10;}
</style>
<path class="st0" d="M123.4,358.9c0-130.3,105.6-235.9,235.9-235.9c130.3,0,235.9,105.6,235.9,235.9
	c0,130.3-105.6,235.9-235.9,235.9C229,594.8,123.4,489.2,123.4,358.9z M359.3,66.2c-161.6,0-292.7,131-292.7,292.7
	c0,161.6,131,292.7,292.7,292.7c75.8,0,144.8-28.8,196.8-76.1l128.7,128.7c11.1,11.1,29,11.1,40.1,0c11.1-11.1,11.1-29,0-40.1
	L594.3,533.4c36.2-48.7,57.7-109.1,57.7-174.5C652,197.2,521,66.2,359.3,66.2z"/>
</svg>
