<?xml version="1.0" encoding="utf-8"?>
<!-- Generator: Adobe Illustrator 24.1.2, SVG Export Plug-In . SVG Version: 6.00 Build 0)  -->
<svg version="1.1" id="Layer_1" xmlns="http://www.w3.org/2000/svg" xmlns:xlink="http://www.w3.org/1999/xlink" x="0px" y="0px"
	 viewBox="0 0 800 800" style="enable-background:new 0 0 800 800;" xml:space="preserve">
<style type="text/css">
	.st0{fill:#B2B2B2;stroke:#B2B2B2;stroke-miterlimit:10;}
</style>
<g>
	<g>
		<polygon class="st0" points="614.7,517.2 614.7,428.8 582.7,428.8 582.7,517.2 494.3,517.2 494.3,549.2 582.7,549.2 582.7,637.5 
			614.7,637.5 614.7,549.2 703.1,549.2 703.1,517.2 		"/>
	</g>
</g>
<g>
	<g>
		<path class="st0" d="M800,262.8c0-123.1-100.2-223.3-223.3-223.3c-70.1,0-134.6,32.2-176.7,87.1c-42.1-55-106.6-87.1-176.7-87.1
			C100.2,39.5,0,139.7,0,262.8C0,342,38.2,548.4,391.9,755.7l8.1,4.7l8.1-4.7c34.1-20,66.5-40.9,96.6-62.1
			c27.6,16.3,59.7,25.7,94,25.7c102.7,0,186.2-83.5,186.2-186.2c0-37.9-11.5-73.2-31-102.7C784.4,373,800,316.6,800,262.8z
			 M400,723.3C169.4,586.1,32,414.4,32,262.8c0-105.5,85.8-191.3,191.3-191.3c67,0,128,34.3,163.1,91.7l13.6,22.3l13.6-22.3
			c35.1-57.4,96.1-91.7,163.1-91.7c105.5,0,191.3,85.8,191.3,191.3c0,44.8-12.1,92-36,140.6c-33.9-34.8-81.1-56.5-133.3-56.5
			c-102.7,0-186.2,83.5-186.2,186.2c0,56.2,25.1,106.6,64.7,140.8C452.8,690.7,427,707.3,400,723.3z M598.7,687.4
			c-85,0-154.2-69.2-154.2-154.2s69.2-154.2,154.2-154.2s154.2,69.2,154.2,154.2S683.7,687.4,598.7,687.4z"/>
	</g>
</g>
</svg>
