<svg width="800" height="800" viewBox="0 0 24 24" xmlns="http://www.w3.org/2000/svg"><path d="M55.454 135.431c-7.593 2.782-13.558 7.803-17.758 14.948L34 156.667v220l3.696 6.288c4.315 7.34 10.194 12.184 18.23 15.019 5.08 1.792 44.795 2.026 344.004 2.026 379.585 0 345.865.942 356.772-9.965 10.381-10.382 9.965-5.222 9.965-123.368s.416-112.987-9.965-123.369c-10.911-10.91 22.906-9.976-357.273-9.871-290.528.081-339.504.366-343.975 2.004M700 266.667v66.666H100V200h600v66.667M55.454 468.764c-7.593 2.782-13.558 7.803-17.758 14.948C34.544 489.074 34 491.472 34 500s.544 10.926 3.696 16.288c4.315 7.341 10.194 12.184 18.23 15.019 5.08 1.792 44.795 2.026 344.004 2.026 379.585 0 345.865.942 356.772-9.965 13.042-13.042 13.042-33.694 0-46.736-10.911-10.911 22.906-9.977-357.273-9.871-290.528.08-339.504.365-343.975 2.003m0 133.334c-7.593 2.782-13.558 7.803-17.758 14.947-3.152 5.362-3.696 7.761-3.696 16.288 0 8.528.544 10.926 3.696 16.288 4.315 7.341 10.194 12.184 18.23 15.02 5.08 1.792 44.795 2.026 344.004 2.026 379.585 0 345.865.942 356.772-9.965 13.042-13.042 13.042-33.695 0-46.737-10.911-10.911 22.906-9.976-357.273-9.871-290.528.081-339.504.366-343.975 2.004" fill-rule="evenodd"/></svg>